<?xml version="1.0" standalone="no"?><!DOCTYPE svg PUBLIC "-//W3C//DTD SVG 1.1//EN" "http://www.w3.org/Graphics/SVG/1.1/DTD/svg11.dtd"><svg t="1745744403790" class="icon" viewBox="0 0 1024 1024" version="1.1" xmlns="http://www.w3.org/2000/svg" p-id="1209" xmlns:xlink="http://www.w3.org/1999/xlink" width="200" height="200"><path d="M784.411897 485.542614l-0.575856 0.47988q-1.343664 1.135716-2.71932 2.239441l-0.607848 0.47988c-1.11972 0.863784-2.23944 1.711572-3.375156 2.543364a427.669083 427.669083 0 0 0-30.712322-63.808048 55.506123 55.506123 0 0 0 2.703324-2.23944q0.911772-0.7998 1.775556-1.663585l0.527868-0.511872a55.378155 55.378155 0 0 0 15.964009-32.551862l0.031992-0.31992A55.186203 55.186203 0 0 0 767.808048 383.744064c0-0.55986-0.031992-1.11972-0.047988-1.663584a55.874031 55.874031 0 0 0-0.143964-2.591352l-0.111972-1.215696a56.257936 56.257936 0 0 0-0.415896-3.087229l-0.143964-0.7998a53.234691 53.234691 0 0 0-0.751812-3.583104l-0.095976-0.383904a54.306423 54.306423 0 0 0-1.1997-4.014996 54.754311 54.754311 0 0 0-43.205199-36.406898l-0.255936-0.047988a55.026243 55.026243 0 0 0-3.743064-0.431892l-1.11972-0.063984q-1.43964-0.095976-2.87928-0.111972h-1.503624a55.154211 55.154211 0 0 0-2.927269 0.143964l-1.327668 0.095976q-1.775556 0.15996-3.551112 0.47988l-0.63984 0.07998c-1.43964 0.255936-2.87928 0.55986-4.302924 0.927768l-0.111972 0.047988a53.506623 53.506623 0 0 0-3.967009 1.1997l-0.895776 0.31992c-1.03974 0.3999-2.07948 0.7998-3.103224 1.247688l-1.055736 0.47988c-0.95976 0.447888-1.91952 0.927768-2.863284 1.43964a54.818295 54.818295 0 0 0-3.871032 2.287428l-0.895776 0.543864c-1.1997 0.7998-2.367408 1.647588-3.519121 2.55936a393.581605 393.581605 0 0 0-30.520369-27.417145q1.647588-1.1997 3.327168-2.335417l0.943764-0.607848c0.831792-0.543864 1.663584-1.087728 2.511372-1.5996l1.03974-0.63984 2.527368-1.503624 1.007748-0.55986q1.391652-0.767808 2.7993-1.503624l0.751812-0.383904q3.711072-1.887528 7.550113-3.487128l0.127968-0.047988q1.791552-0.751812 3.615096-1.423644l0.783804-0.287928q1.503624-0.543864 3.03924-1.055736l0.95976-0.31992q1.503624-0.47988 3.039241-0.927768l0.863784-0.255936a105.893527 105.893527 0 0 1 3.67908-0.959761l0.223944-0.047988q1.9995-0.47988 3.999-0.895776l0.751812-0.143964c1.055736-0.207948 2.095476-0.3999 3.151212-0.55986l1.327669-0.207948q1.311672-0.207948 2.623344-0.367908a122.08148 122.08148 0 0 1 4.046988-0.447888l1.43964-0.127968a110.532367 110.532367 0 0 1 3.055236-0.175956l1.023744-0.063984c1.247688-0.047988 2.495376-0.063984 3.743065-0.07998h1.455636l2.767308 0.063984 1.311672 0.063984c1.03974 0.031992 2.07948 0.095976 3.11922 0.175956l0.895776 0.063984a109.380655 109.380655 0 0 1 12.668833 1.791552 109.556611 109.556611 0 0 1 52.706823 187.889028l-0.287928 0.255936q-1.375656 1.263684-2.7993 2.47938z" fill="#244E99" p-id="1210"></path><path d="M858.68133 391.246188a146.059485 146.059485 0 0 0-240.419895-100.134966 430.228443 430.228443 0 0 0-15.164209-9.693576 314.689328 314.689328 0 0 0-21.754562-113.347663A272.363909 272.363909 0 0 1 716.620845 112.131967a506.785304 506.785304 0 0 0 104.75781 138.749313 469.002749 469.002749 0 0 0 201.453637 116.082979c0.367908 5.67858 0.911772 11.341165 0.911772 17.195701a274.283429 274.283429 0 0 1-219.737066 268.732817c0.175956-4.206948 0.367908-8.605849 0.367908-12.796801a419.415146 419.415146 0 0 0-15.548113-112.979755 146.059485 146.059485 0 0 0 69.854537-135.870033z" fill="#244E99" p-id="1211"></path><path d="M322.655336 224.19995A137.069733 137.069733 0 1 0 82.267433 347.593102a416.807798 416.807798 0 0 0-51.379155 64.527868A283.289178 283.289178 0 1 1 542.584354 169.349663a277.850537 277.850537 0 0 1 23.034241 91.593101 418.35941 418.35941 0 0 0-242.963259-36.742814z" fill="#CE2E1C" p-id="1212"></path><path d="M151.546113 289.815546a455.214196 455.214196 0 0 0-42.405398 32.35991 100.486878 100.486878 0 1 1 177.331667-91.033242 407.098225 407.098225 0 0 0-90.68133 33.095727c-0.543864 0.175956-1.27968 0.175956-1.823544 0.351912a17.915521 17.915521 0 0 1-14.076481 0.367908 18.331417 18.331417 0 0 1-0.735816-33.815547 18.651337 18.651337 0 0 1 13.340665-0.543864 18.235441 18.235441 0 0 0 12.252937-34.375406 54.962259 54.962259 0 0 0-69.470633 31.992002 55.826043 55.826043 0 0 0 1.103725 42.053487 54.946263 54.946263 0 0 0 15.164208 19.547113z" fill="#CE2E1C" p-id="1213"></path><path d="M756.834791 110.308423a274.571357 274.571357 0 0 1 261.054737 217.545613 445.344664 445.344664 0 0 1-171.285179-103.654086 482.775306 482.775306 0 0 1-89.769558-113.891527z" fill="#244E99" p-id="1214"></path><path d="M311.330167 563.667083a17.755561 17.755561 0 0 1 6.222445-1.087728 18.715321 18.715321 0 0 1 7.67808 1.647588 18.971257 18.971257 0 0 1 9.501625 10.413397 18.299425 18.299425 0 0 1-0.543864 13.900525 18.971257 18.971257 0 0 1-10.429393 9.501624 18.267433 18.267433 0 1 1-12.428893-34.375406z" fill="#0E0D0E" p-id="1215"></path><path d="M0 640.095976a383.904024 383.904024 0 1 0 383.904024-383.904024 383.904024 383.904024 0 0 0-383.904024 383.904024zM127.968008 548.662834A182.818295 182.818295 0 1 1 310.802299 731.497126 182.818295 182.818295 0 0 1 127.968008 548.662834z" fill="#0E0D0E" p-id="1216"></path><path d="M731.193202 384.895776q-0.031992 0.7998-0.15996 1.5996c-0.031992 0.31992-0.07998 0.623844-0.143964 0.927768q-0.15996 0.895776-0.431892 1.775556l-0.3999 1.11972a17.227693 17.227693 0 0 1-1.823544 3.599101c-0.15996 0.271932-0.351912 0.527868-0.527869 0.767808a18.555361 18.555361 0 0 1-1.391652 1.711572 464.139965 464.139965 0 0 0-21.946513-28.152962 17.323669 17.323669 0 0 1 8.605849-2.367408 18.203449 18.203449 0 0 1 2.07948 0.127968c0.511872 0.047988 0.991752 0.127968 1.487628 0.223944l0.255936 0.063984a17.659585 17.659585 0 0 1 14.028493 14.044489l0.07998 0.367908c0.095976 0.511872 0.191952 1.023744 0.23994 1.551612a18.523369 18.523369 0 0 1 0.095976 1.903524v0.175956c0 0.191952-0.031992 0.367908-0.047988 0.55986z" fill="#244E99" p-id="1217"></path><path d="M164.534866 548.67883a146.251437 146.251437 0 1 0 146.251437-146.251437 146.251437 146.251437 0 0 0-146.251437 146.251437z m109.140715-88.105973a54.882279 54.882279 0 0 1 70.382405 32.711822 54.002499 54.002499 0 0 1-0.911773 39.31817 54.658335 54.658335 0 0 1-25.593601 103.094227 53.746563 53.746563 0 0 1-23.226194-5.118721 54.722319 54.722319 0 0 1-28.328917-30.888278 54.002499 54.002499 0 0 1 0.911772-39.302174 54.658335 54.658335 0 0 1-25.96151-29.432642 54.882279 54.882279 0 0 1 32.727818-70.382404z" fill="#0E0D0E" p-id="1218"></path><path d="M275.867033 504.449888a18.939265 18.939265 0 0 1 10.413397-9.517621 18.619345 18.619345 0 0 1 6.222444-1.087728 18.283429 18.283429 0 1 1-7.67808 34.903274 18.955261 18.955261 0 0 1-9.501625-10.397401q-0.31992-0.863784-0.543864-1.727568a18.283429 18.283429 0 0 1 1.087728-12.172956z" fill="#0E0D0E" p-id="1219"></path><path d="M484.746388 395.563635a75.085229 45.044739 27.672 1 0 41.838391-79.785105 75.085229 45.044739 27.672 1 0-41.838391 79.785105Z" fill="#55595A" p-id="1220"></path><path d="M309.791329 94.700599a57.36166 34.423394 9.825 1 0 11.747978-67.837049 57.36166 34.423394 9.825 1 0-11.747978 67.837049Z" fill="#FFFFFF" p-id="1221"></path></svg>