<?xml version="1.0" standalone="no"?><!DOCTYPE svg PUBLIC "-//W3C//DTD SVG 1.1//EN" "http://www.w3.org/Graphics/SVG/1.1/DTD/svg11.dtd"><svg t="1745744406504" class="icon" viewBox="0 0 1024 1024" version="1.1" xmlns="http://www.w3.org/2000/svg" p-id="1362" xmlns:xlink="http://www.w3.org/1999/xlink" width="200" height="200"><path d="M832.467454 433.791572a109.6 70.4 34.764 1 0 80.28381-115.668276 109.6 70.4 34.764 1 0-80.28381 115.668276Z" fill="#FF826E" p-id="1363"></path><path d="M714.210567 257.775294a109.6 70.4 34.764 1 0 80.28381-115.668275 109.6 70.4 34.764 1 0-80.28381 115.668275Z" fill="#FF826E" p-id="1364"></path><path d="M573.28 248a96 77.6 90 1 0 155.2 0 96 77.6 90 1 0-155.2 0Z" fill="#FF826E" p-id="1365"></path><path d="M551.12 376a96 77.6 90 1 0 155.2 0 96 77.6 90 1 0-155.2 0Z" fill="#FF826E" p-id="1366"></path><path d="M558.48 332a188.48 148 0 1 0 376.96 0 188.48 148 0 1 0-376.96 0Z" fill="#FF826E" p-id="1367"></path><path d="M558.48 160a96 77.6 90 1 0 155.2 0 96 77.6 90 1 0-155.2 0Z" fill="#FF826E" p-id="1368"></path><path d="M961.92 485.2c-2.96-57.44-16.88-114.24-40.24-164.32-68.24-145.92-215.36-239.36-365.92-232.48l-1.84-40c166.4-7.52 328.96 95.04 404 255.52 25.6 54.72 40.8 116.64 44 179.2l-40 2.08z" p-id="1369"></path><path d="M573.36 48.48c-0.56-0.08-1.12-0.08-1.68-0.08-0.16 0-0.32 0.16-0.56 0.16-2.16 0-4.4-0.16-6.56-0.32l-16.72 0.72c-0.16 0-0.32 0.08-0.4 0.08v438.64h40.64V49.04c-4.96 0.88-10.8-0.24-14.72-0.56z" p-id="1370"></path><path d="M998.96 466.48c-0.4-8.96-1.84-17.68-2.96-26.48H551.12v48H1000c0.08-7.36-0.8-15.28-1.04-21.52z" p-id="1371"></path><path d="M136.673459 713.927503a109.6 70.4 34.764 1 0 80.283809-115.668276 109.6 70.4 34.764 1 0-80.283809 115.668276Z" fill="#FF826E" p-id="1372"></path><path d="M254.926907 889.937208a109.6 70.4 34.764 1 0 80.28381-115.668275 109.6 70.4 34.764 1 0-80.28381 115.668275Z" fill="#FF826E" p-id="1373"></path><path d="M320.96 784.16a96 77.6 90 1 0 155.2 0 96 77.6 90 1 0-155.2 0Z" fill="#FF826E" p-id="1374"></path><path d="M343.12 656.16a96 77.6 90 1 0 155.2 0 96 77.6 90 1 0-155.2 0Z" fill="#FF826E" p-id="1375"></path><path d="M113.92 700.16a188.48 148 0 1 0 376.96 0 188.48 148 0 1 0-376.96 0Z" fill="#FF826E" p-id="1376"></path><path d="M335.68 872.16a96 77.6 90 1 0 155.2 0 96 77.6 90 1 0-155.2 0Z" fill="#FF826E" p-id="1377"></path><path d="M478.08 984.08c-160.4 0-314.16-101.04-386.56-255.92-25.6-54.72-40.8-116.64-44-179.2l39.92-2c2.96 57.44 16.88 114.24 40.24 164.32 68.24 145.92 215.36 239.28 365.92 232.48l1.84 39.92c-5.76 0.24-11.6 0.4-17.36 0.4z" p-id="1378"></path><path d="M476.08 983.68c0.56 0.08 1.12 0.08 1.68 0.08 0.16 0 0.32-0.16 0.56-0.16 2.16 0 4.4 0.16 6.56 0.32l16.72-0.72c0.16 0 0.32-0.08 0.4-0.08V544.48h-40.64v438.64c4.96-0.88 10.8 0.16 14.72 0.56z" p-id="1379"></path><path d="M50.48 565.68c0.4 8.96 1.84 17.68 2.96 26.48h444.88v-48H49.44c-0.16 7.28 0.72 15.28 1.04 21.52zM567.36 984.08c-5.76 0-11.6-0.16-17.36-0.4l1.84-39.92c150.48 6.72 297.68-86.56 365.92-232.48 23.44-50.08 37.36-106.88 40.24-164.32l39.92 2c-3.2 62.56-18.4 124.48-44 179.2-72.4 154.88-226.16 255.92-386.56 255.92z" p-id="1380"></path><path d="M569.36 983.68c-0.56 0.08-1.12 0.08-1.68 0.08-0.16 0-0.32-0.16-0.56-0.16-2.16 0-4.4 0.16-6.56 0.32l-16.72-0.72c-0.16 0-0.32-0.08-0.4-0.08V544.48h40.64v438.64c-4.96-0.88-10.8 0.16-14.72 0.56z" p-id="1381"></path><path d="M994.96 565.68c-0.4 8.96-1.84 17.68-2.96 26.48H547.12v-48h448.88c0.16 7.28-0.72 15.28-1.04 21.52zM85.76 485.2l-39.92-2c3.2-62.56 18.4-124.48 44-179.2C164.8 143.52 327.12 40.88 493.76 48.48l-1.84 40c-150.56-6.88-297.68 86.56-365.92 232.48-23.36 50-37.36 106.8-40.24 164.24z" p-id="1382"></path><path d="M474.32 48.48c0.56-0.08 1.12-0.08 1.68-0.08 0.16 0 0.32 0.16 0.56 0.16 2.16 0 4.4-0.16 6.56-0.32l16.72 0.72c0.16 0 0.32 0.08 0.4 0.08v438.64h-40.64V49.04c5.04 0.88 10.8-0.24 14.72-0.56z" p-id="1383"></path><path d="M48.72 466.48c0.4-8.96 1.84-17.68 2.96-26.48h444.88v48H47.68c-0.08-7.36 0.8-15.28 1.04-21.52z" p-id="1384"></path></svg>