<?xml version="1.0" standalone="no"?><!DOCTYPE svg PUBLIC "-//W3C//DTD SVG 1.1//EN" "http://www.w3.org/Graphics/SVG/1.1/DTD/svg11.dtd"><svg t="1748074899708" class="icon" viewBox="0 0 1024 1024" version="1.1" xmlns="http://www.w3.org/2000/svg" p-id="35882" xmlns:xlink="http://www.w3.org/1999/xlink" width="200" height="200"><path d="M0 511.744128c0 282.482759 229.261369 511.744128 511.744128 511.744128s511.744128-229.261369 511.744128-511.744128S794.226887 0 511.744128 0 0 229.261369 0 511.744128z" fill="#EFF3FD" p-id="35883"></path><path d="M266.106947 961.055472c-7.164418-22.516742-11.258371-47.08046-11.258371-72.155922 0-122.818591 94.672664-223.632184 214.932533-233.355322v-44.521739h66.526737v45.545227c116.677661 13.305347 207.768116 112.583708 207.768116 232.843578 0 30.704648-6.14093 59.874063-16.375812 86.996502-65.503248 30.704648-138.682659 47.592204-215.956022 47.592204-89.043478-0.511744-172.457771-23.54023-245.637181-62.944528z" fill="#d81e06" p-id="35884"></path><path d="M731.282359 465.175412c-31.728136 95.696152-121.795102 165.293353-228.237881 165.293354h-9.723139c-106.442779 0-197.021489-69.085457-228.237881-165.293354h-1.023488c-18.422789 0-32.751624-12.793603-32.751624-28.657671 0-12.793603 9.723138-23.54023 23.028486-27.122439-0.511744-6.14093-1.023488-12.793603-1.023489-19.446277 0-133.053473 107.466267-240.51974 240.51974-240.51974h9.723139c133.053473 0 240.51974 107.466267 240.51974 240.51974 0 6.652674-0.511744 12.793603-1.023488 19.446277 13.305347 3.582209 23.028486 14.84058 23.028486 27.122439 0 15.864068-14.84058 28.657671-32.751625 28.657671h-2.046976z" fill="#FBDFCD" p-id="35885"></path><path d="M268.665667 396.601699c34.286857-107.466267 125.377311-156.593703 272.75962-147.382309 90.578711 7.676162 152.49975 64.991504 185.251375 171.434283 52.197901-72.667666 61.921039-137.65917 28.657671-194.462768-32.751624-46.568716-53.733133-42.986507-82.390805-38.892554-28.657671 4.093953-24.563718 4.093953-24.563718-23.54023 0-42.986507-16.375812-151.476262-198.044977-97.231384S316.257871 159.152424 217.491254 127.936032c-13.817091 51.174413-13.817091 113.095452 52.197901 140.217891C286.064968 276.341829 255.872064 294.252874 243.078461 332.633683c-8.69965 34.286857 0 55.268366 25.587206 63.968016z" fill="#392C2E" p-id="35886"></path><path d="M462.616692 562.406797h78.808595c-9.211394 14.84058-23.54023 24.051974-39.404297 24.051974s-30.704648-9.723138-39.404298-24.051974z" fill="#F4A688" p-id="35887"></path><path d="M554.218891 659.126437c-5.629185-1.023488-11.770115-2.046977-17.399301-2.558721v-45.545227h-66.526736v44.521739c-13.817091 1.023488-27.122439 3.582209-40.427787 6.652674l35.310345 23.540229 27.634183 18.934533 9.211395 3.582209 39.404297-19.446277 12.793604-29.681159z" fill="#FBDFCD" p-id="35888"></path><path d="M416.047976 665.267366c16.375812-5.629185 31.728136-9.211394 54.244878-11.25837 15.864068 13.817091 26.610695 31.728136 31.728136 53.733133l-49.127437 47.08046c-13.305347-48.103948-25.587206-77.785107-36.845577-89.555223z m172.457771 2.046977c-10.746627-5.629185-24.051974-12.793603-51.686157-12.793603-13.817091 17.3993-25.587206 35.310345-34.7986 53.221389l50.662668 50.150924c13.305347-48.103948 25.587206-78.296852 35.822089-90.57871z" fill="#FFFFFF" p-id="35889"></path></svg>